<svg width="20" height="24" viewBox="0 0 20 24" fill="none" xmlns="http://www.w3.org/2000/svg">
<path d="M5.6002 5.60019H7.2002C7.4211 5.60019 7.6002 5.42109 7.6002 5.20019V3.6002C7.6002 3.3793 7.4211 3.2002 7.2002 3.2002H5.6002C5.3793 3.2002 5.2002 3.3793 5.2002 3.6002V5.20019C5.2002 5.42109 5.3793 5.60019 5.6002 5.60019ZM6.0002 4.0002H6.8002V4.80019H6.0002V4.0002Z" fill="#4B4B66"/>
<path d="M8.80039 5.60019H10.4004C10.6213 5.60019 10.8004 5.42109 10.8004 5.20019V3.6002C10.8004 3.3793 10.6213 3.2002 10.4004 3.2002H8.80039C8.57949 3.2002 8.40039 3.3793 8.40039 3.6002V5.20019C8.40039 5.42109 8.57949 5.60019 8.80039 5.60019ZM9.20039 4.0002H10.0004V4.80019H9.20039V4.0002Z" fill="#4B4B66"/>
<path d="M11.9996 5.60019H13.5996C13.8205 5.60019 13.9996 5.42109 13.9996 5.20019V3.6002C13.9996 3.3793 13.8205 3.2002 13.5996 3.2002H11.9996C11.7787 3.2002 11.5996 3.3793 11.5996 3.6002V5.20019C11.5996 5.42109 11.7787 5.60019 11.9996 5.60019ZM12.3996 4.0002H13.1996V4.80019H12.3996V4.0002Z" fill="#4B4B66"/>
<path d="M5.6002 8.7999H7.2002C7.4211 8.7999 7.6002 8.6208 7.6002 8.3999V6.7999C7.6002 6.579 7.4211 6.3999 7.2002 6.3999H5.6002C5.3793 6.3999 5.2002 6.579 5.2002 6.7999V8.3999C5.2002 8.6208 5.3793 8.7999 5.6002 8.7999ZM6.0002 7.1999H6.8002V7.9999H6.0002V7.1999Z" fill="#4B4B66"/>
<path d="M8.80039 8.7999H10.4004C10.6213 8.7999 10.8004 8.6208 10.8004 8.3999V6.7999C10.8004 6.579 10.6213 6.3999 10.4004 6.3999H8.80039C8.57949 6.3999 8.40039 6.579 8.40039 6.7999V8.3999C8.40039 8.6208 8.57949 8.7999 8.80039 8.7999ZM9.20039 7.1999H10.0004V7.9999H9.20039V7.1999Z" fill="#4B4B66"/>
<path d="M11.9996 8.7999H13.5996C13.8205 8.7999 13.9996 8.6208 13.9996 8.3999V6.7999C13.9996 6.579 13.8205 6.3999 13.5996 6.3999H11.9996C11.7787 6.3999 11.5996 6.579 11.5996 6.7999V8.3999C11.5996 8.6208 11.7787 8.7999 11.9996 8.7999ZM12.3996 7.1999H13.1996V7.9999H12.3996V7.1999Z" fill="#4B4B66"/>
<path d="M5.6002 12.0001H7.2002C7.4211 12.0001 7.6002 11.821 7.6002 11.6001V10.0001C7.6002 9.7792 7.4211 9.6001 7.2002 9.6001H5.6002C5.3793 9.6001 5.2002 9.7792 5.2002 10.0001V11.6001C5.2002 11.821 5.3793 12.0001 5.6002 12.0001ZM6.0002 10.4001H6.8002V11.2001H6.0002V10.4001Z" fill="#4B4B66"/>
<path d="M8.80039 12.0001H10.4004C10.6213 12.0001 10.8004 11.821 10.8004 11.6001V10.0001C10.8004 9.7792 10.6213 9.6001 10.4004 9.6001H8.80039C8.57949 9.6001 8.40039 9.7792 8.40039 10.0001V11.6001C8.40039 11.821 8.57949 12.0001 8.80039 12.0001ZM9.20039 10.4001H10.0004V11.2001H9.20039V10.4001Z" fill="#4B4B66"/>
<path d="M11.9996 12.0001H13.5996C13.8205 12.0001 13.9996 11.821 13.9996 11.6001V10.0001C13.9996 9.7792 13.8205 9.6001 13.5996 9.6001H11.9996C11.7787 9.6001 11.5996 9.7792 11.5996 10.0001V11.6001C11.5996 11.821 11.7787 12.0001 11.9996 12.0001ZM12.3996 10.4001H13.1996V11.2001H12.3996V10.4001Z" fill="#4B4B66"/>
<path d="M5.6002 15.1998H7.2002C7.4211 15.1998 7.6002 15.0207 7.6002 14.7998V13.1998C7.6002 12.9789 7.4211 12.7998 7.2002 12.7998H5.6002C5.3793 12.7998 5.2002 12.9789 5.2002 13.1998V14.7998C5.2002 15.0207 5.3793 15.1998 5.6002 15.1998ZM6.0002 13.5998H6.8002V14.3998H6.0002V13.5998Z" fill="#4B4B66"/>
<path d="M8.80039 15.1998H10.4004C10.6213 15.1998 10.8004 15.0207 10.8004 14.7998V13.1998C10.8004 12.9789 10.6213 12.7998 10.4004 12.7998H8.80039C8.57949 12.7998 8.40039 12.9789 8.40039 13.1998V14.7998C8.40039 15.0207 8.57949 15.1998 8.80039 15.1998ZM9.20039 13.5998H10.0004V14.3998H9.20039V13.5998Z" fill="#4B4B66"/>
<path d="M11.9996 15.1998H13.5996C13.8205 15.1998 13.9996 15.0207 13.9996 14.7998V13.1998C13.9996 12.9789 13.8205 12.7998 13.5996 12.7998H11.9996C11.7787 12.7998 11.5996 12.9789 11.5996 13.1998V14.7998C11.5996 15.0207 11.7787 15.1998 11.9996 15.1998ZM12.3996 13.5998H13.1996V14.3998H12.3996V13.5998Z" fill="#4B4B66"/>
<path d="M5.6002 18.4H7.2002C7.4211 18.4 7.6002 18.2209 7.6002 18V16.4C7.6002 16.1791 7.4211 16 7.2002 16H5.6002C5.3793 16 5.2002 16.1791 5.2002 16.4V18C5.2002 18.2209 5.3793 18.4 5.6002 18.4ZM6.0002 16.8H6.8002V17.6H6.0002V16.8Z" fill="#4B4B66"/>
<path d="M8.80039 18.4H10.4004C10.6213 18.4 10.8004 18.2209 10.8004 18V16.4C10.8004 16.1791 10.6213 16 10.4004 16H8.80039C8.57949 16 8.40039 16.1791 8.40039 16.4V18C8.40039 18.2209 8.57949 18.4 8.80039 18.4ZM9.20039 16.8H10.0004V17.6H9.20039V16.8Z" fill="#4B4B66"/>
<path d="M11.9996 18.4H13.5996C13.8205 18.4 13.9996 18.2209 13.9996 18V16.4C13.9996 16.1791 13.8205 16 13.5996 16H11.9996C11.7787 16 11.5996 16.1791 11.5996 16.4V18C11.5996 18.2209 11.7787 18.4 11.9996 18.4ZM12.3996 16.8H13.1996V17.6H12.3996V16.8Z" fill="#4B4B66"/>
<path d="M15.6 23.2V2.4H16C16.2209 2.4 16.4 2.2209 16.4 2V0.4C16.4 0.1791 16.2209 0 16 0H3.2C2.9791 0 2.8 0.1791 2.8 0.4V2C2.8 2.2209 2.9791 2.4 3.2 2.4H3.6V23.2H0V24H19.2V23.2H15.6ZM3.6 0.8H15.6V1.6H3.6V0.8ZM9.2 23.2H7.6V20H9.2V23.2ZM11.6 23.2H10V20H11.6V23.2ZM14.8 23.2H12.4V19.6C12.4 19.3791 12.2209 19.2 12 19.2H7.2C6.9791 19.2 6.8 19.3791 6.8 19.6V23.2H4.4V2.4H14.8V23.2Z" fill="#4B4B66"/>
</svg>
