<svg width="106" height="113" viewBox="0 0 106 113" fill="none" xmlns="http://www.w3.org/2000/svg">
<g filter="url(#filter0_d_217_199)">
<mask id="path-1-outside-1_217_199" maskUnits="userSpaceOnUse" x="24" y="20" width="58" height="65" fill="black">
<rect fill="white" x="24" y="20" width="58" height="65"/>
<path fill-rule="evenodd" clip-rule="evenodd" d="M60.3416 74.0205C71.2402 70.7011 79.1699 60.5691 79.1699 48.5849C79.1699 33.9025 67.2674 22 52.5849 22C37.9025 22 26 33.9025 26 48.5849C26 59.7814 32.9215 69.3612 42.7192 73.2791L51.194 81.7539C51.5845 82.1444 52.2177 82.1444 52.6082 81.7539L60.3416 74.0205Z"/>
</mask>
<path fill-rule="evenodd" clip-rule="evenodd" d="M60.3416 74.0205C71.2402 70.7011 79.1699 60.5691 79.1699 48.5849C79.1699 33.9025 67.2674 22 52.5849 22C37.9025 22 26 33.9025 26 48.5849C26 59.7814 32.9215 69.3612 42.7192 73.2791L51.194 81.7539C51.5845 82.1444 52.2177 82.1444 52.6082 81.7539L60.3416 74.0205Z" fill="#7450F0"/>
<path d="M60.3416 74.0205L59.7589 72.1073L59.2808 72.2529L58.9274 72.6063L60.3416 74.0205ZM42.7192 73.2791L44.1334 71.8649L43.843 71.5745L43.4617 71.4221L42.7192 73.2791ZM51.194 81.7539L52.6082 80.3397L52.6082 80.3397L51.194 81.7539ZM52.6082 81.7539L51.194 80.3397L51.194 80.3397L52.6082 81.7539ZM77.1699 48.5849C77.1699 59.6645 69.8392 69.0371 59.7589 72.1073L60.9243 75.9337C72.6413 72.3651 81.1699 61.4736 81.1699 48.5849H77.1699ZM52.5849 24C66.1628 24 77.1699 35.0071 77.1699 48.5849H81.1699C81.1699 32.7979 68.372 20 52.5849 20V24ZM28 48.5849C28 35.0071 39.0071 24 52.5849 24V20C36.7979 20 24 32.7979 24 48.5849H28ZM43.4617 71.4221C34.3976 67.7975 28 58.9359 28 48.5849H24C24 60.6269 31.4454 70.925 41.9766 75.1361L43.4617 71.4221ZM52.6082 80.3397L44.1334 71.8649L41.3049 74.6933L49.7798 83.1681L52.6082 80.3397ZM51.194 80.3397C51.5845 79.9492 52.2177 79.9492 52.6082 80.3397L49.7798 83.1681C50.9513 84.3397 52.8508 84.3397 54.0224 83.1681L51.194 80.3397ZM58.9274 72.6063L51.194 80.3397L54.0224 83.1681L61.7558 75.4347L58.9274 72.6063Z" fill="white" mask="url(#path-1-outside-1_217_199)"/>
<path d="M51.3742 42.3231C51.3742 39.4759 51.3742 36.6286 51.3742 33.7636C51.3742 33.728 51.3742 33.7102 51.3742 33.6746C51.3742 33.5679 51.3386 33.4433 51.4632 33.3721C51.6056 33.3009 51.6768 33.4077 51.7657 33.4789C52.442 33.9771 53.1182 34.4576 53.8122 34.9559C57.9763 37.9811 62.1403 41.0062 66.3044 44.0314C67.2653 44.7254 68.2263 45.4372 69.1872 46.1313C69.3474 46.2558 69.4541 46.3804 69.383 46.5939C69.3118 46.8075 69.1338 46.8253 68.9381 46.8253C67.6212 46.8253 66.3222 46.8253 65.0054 46.8253C64.8274 46.8253 64.7918 46.8786 64.7918 47.0388C64.7918 48.3379 64.7918 49.6369 64.7918 50.936C64.7918 51.3452 64.685 51.4342 64.2935 51.4342C60.1473 51.4342 56.001 51.4342 51.8547 51.4342C51.4454 51.4342 51.3564 51.3274 51.3564 50.936C51.3742 48.0531 51.3742 45.1881 51.3742 42.3231Z" fill="white"/>
<path d="M51.7477 60.0289C49.9504 60.0289 48.2065 60.0823 46.4804 60.0111C43.9713 59.9221 41.8536 57.8756 41.5689 55.3843C41.5511 55.153 41.5333 54.9394 41.5333 54.7081C41.5333 52.199 41.5333 49.7077 41.5333 47.1985C41.5333 47.0028 41.4977 46.9494 41.302 46.9672C39.9673 46.985 38.6327 46.9672 37.2803 46.9672C37.0845 46.9672 36.9244 46.9494 36.8532 46.7537C36.782 46.5579 36.871 46.4333 37.0133 46.291C39.2199 44.3157 41.4087 42.3405 43.5976 40.3474C45.2169 38.8882 46.8363 37.4112 48.4556 35.952C48.5268 35.8808 48.598 35.774 48.7404 35.8274C48.8827 35.8808 48.8649 36.0054 48.8649 36.1299C48.8649 41.3439 48.8649 46.5401 48.8471 51.7541C48.8471 52.4303 48.8115 53.1243 48.8293 53.8006C48.8471 55.4911 49.2742 57.0571 50.253 58.4629C50.6622 59.0501 51.1605 59.5662 51.7477 60.0289Z" fill="white"/>
<path d="M64.1873 60.029C63.8136 60.029 63.4755 60.029 63.1374 60.029C61.3401 60.029 59.5606 60.029 57.7633 60.029C56.5176 60.029 55.3075 59.8688 54.1508 59.3706C52.2467 58.5698 51.1434 57.1284 50.7342 55.1175C50.6452 54.7082 50.6096 54.2989 50.5918 53.8719C50.5918 53.7473 50.6096 53.6939 50.752 53.6939C52.9586 53.6939 55.1474 53.6761 57.354 53.7117C60.5571 53.7651 63.2976 56.0429 64.0094 59.2104C64.0628 59.4773 64.1161 59.7443 64.1873 60.029Z" fill="white"/>
</g>
<defs>
<filter id="filter0_d_217_199" x="0" y="0" width="105.17" height="112.047" filterUnits="userSpaceOnUse" color-interpolation-filters="sRGB">
<feFlood flood-opacity="0" result="BackgroundImageFix"/>
<feColorMatrix in="SourceAlpha" type="matrix" values="0 0 0 0 0 0 0 0 0 0 0 0 0 0 0 0 0 0 127 0" result="hardAlpha"/>
<feOffset dy="4"/>
<feGaussianBlur stdDeviation="12"/>
<feColorMatrix type="matrix" values="0 0 0 0 0.271015 0 0 0 0 0.147813 0 0 0 0 0.695378 0 0 0 0.3 0"/>
<feBlend mode="normal" in2="BackgroundImageFix" result="effect1_dropShadow_217_199"/>
<feBlend mode="normal" in="SourceGraphic" in2="effect1_dropShadow_217_199" result="shape"/>
</filter>
</defs>
</svg>
