<svg width="28" height="28" viewBox="0 0 28 28" fill="none" xmlns="http://www.w3.org/2000/svg">
<g clip-path="url(#clip0_220_126)">
<path d="M22.75 14L23.625 14.0875V5.20625L15.75 0.875L7.875 5.20625L0.875 1.3125V19.2937L7.875 23.625L15.75 19.2937L18.9 21.0437C18.5698 20.1919 18.3921 19.2885 18.375 18.375C18.375 17.2147 18.8359 16.1019 19.6564 15.2814C20.4769 14.4609 21.5897 14 22.75 14Z" fill="#C3D6F9"/>
<path d="M23.625 14.0875L22.75 14C21.5897 14 20.4769 14.4609 19.6564 15.2814C18.8359 16.1019 18.375 17.2147 18.375 18.375C18.3921 19.2885 18.5698 20.1919 18.9 21.0437C20.0813 24.1937 22.75 27.125 22.75 27.125C22.75 27.125 27.125 22.3125 27.125 18.375C27.1252 17.3664 26.7769 16.3888 26.1391 15.6075C25.5013 14.8262 24.6132 14.2892 23.625 14.0875ZM22.75 19.6875C22.4904 19.6875 22.2367 19.6105 22.0208 19.4663C21.805 19.3221 21.6367 19.1171 21.5374 18.8773C21.4381 18.6374 21.4121 18.3735 21.4627 18.1189C21.5134 17.8643 21.6384 17.6305 21.8219 17.4469C22.0055 17.2634 22.2393 17.1384 22.4939 17.0877C22.7485 17.0371 23.0124 17.0631 23.2523 17.1624C23.4921 17.2617 23.6971 17.43 23.8413 17.6458C23.9855 17.8617 24.0625 18.1154 24.0625 18.375C24.0625 18.7231 23.9242 19.0569 23.6781 19.3031C23.4319 19.5492 23.0981 19.6875 22.75 19.6875Z" fill="#F26161"/>
<path opacity="0.2" d="M0.875 1.3125V19.2937L7.875 23.625V5.20625L0.875 1.3125ZM15.75 0.875V19.2937L18.9 21.0437C18.5698 20.1919 18.3921 19.2885 18.375 18.375C18.375 17.2147 18.8359 16.1019 19.6564 15.2814C20.4769 14.4609 21.5897 14 22.75 14L23.625 14.0875V5.20625L15.75 0.875Z" fill="#000032"/>
<path d="M18.9 21.0437L15.75 19.2937M15.75 19.2937L7.875 23.625M15.75 19.2937V0.875M7.875 23.625L0.875 19.2937V1.3125L7.875 5.20625M7.875 23.625V5.20625M7.875 5.20625L15.75 0.875M15.75 0.875L23.625 5.20625V14.0875" stroke="#1A1859" stroke-miterlimit="10" stroke-linecap="round" stroke-linejoin="round"/>
<path d="M22.75 14C21.5897 14 20.4769 14.4609 19.6564 15.2814C18.8359 16.1019 18.375 17.2147 18.375 18.375C18.375 22.3125 22.75 27.125 22.75 27.125C22.75 27.125 27.125 22.3125 27.125 18.375C27.125 17.2147 26.6641 16.1019 25.8436 15.2814C25.0231 14.4609 23.9103 14 22.75 14Z" stroke="#1A1859" stroke-miterlimit="10" stroke-linecap="round" stroke-linejoin="round"/>
<path d="M22.75 19.6875C23.4749 19.6875 24.0625 19.0999 24.0625 18.375C24.0625 17.6501 23.4749 17.0625 22.75 17.0625C22.0251 17.0625 21.4375 17.6501 21.4375 18.375C21.4375 19.0999 22.0251 19.6875 22.75 19.6875Z" stroke="#1A1859" stroke-miterlimit="10" stroke-linecap="round" stroke-linejoin="round"/>
</g>
<defs>
<clipPath id="clip0_220_126">
<rect width="28" height="28" fill="white"/>
</clipPath>
</defs>
</svg>
