<svg width="26" height="26" viewBox="0 0 26 26" fill="none" xmlns="http://www.w3.org/2000/svg">
<path d="M4.2 18.6H1V1H18.6V4.2" stroke="#0E97F7" stroke-miterlimit="10" stroke-linecap="round" stroke-linejoin="round"/>
<path d="M7.4002 21.8002H4.2002V4.2002H21.8002V7.4002" stroke="#0E97F7" stroke-miterlimit="10" stroke-linecap="round" stroke-linejoin="round"/>
<path d="M7.40039 20.9999H25.0004M7.40039 7.3999H25.0004V24.9999H7.40039V7.3999Z" stroke="#0E97F7" stroke-miterlimit="10" stroke-linecap="round" stroke-linejoin="round"/>
<path d="M11.3998 12.9998C12.2835 12.9998 12.9998 12.2835 12.9998 11.3998C12.9998 10.5161 12.2835 9.7998 11.3998 9.7998C10.5161 9.7998 9.7998 10.5161 9.7998 11.3998C9.7998 12.2835 10.5161 12.9998 11.3998 12.9998Z" stroke="#0E97F7" stroke-miterlimit="10" stroke-linecap="round" stroke-linejoin="round"/>
<path d="M9.7998 20.9999C9.7998 19.8799 10.0398 15.3999 12.7198 15.3999C15.3998 15.3999 14.3598 17.7999 15.3998 17.7999C16.4398 17.7999 15.6398 11.3999 18.5998 11.3999C21.5598 11.3999 22.5998 20.1199 22.5998 20.9999" stroke="#0E97F7" stroke-miterlimit="10" stroke-linecap="round" stroke-linejoin="round"/>
</svg>
